<?xml version="1.0" encoding="utf-8"?>
<!-- Generator: Adobe Illustrator 21.1.0, SVG Export Plug-In . SVG Version: 6.00 Build 0)  -->
<svg version="1.1" id="Layer_1" xmlns="http://www.w3.org/2000/svg" xmlns:xlink="http://www.w3.org/1999/xlink" x="0px" y="0px"
	 viewBox="0 0 1000 1000" style="enable-background:new 0 0 1000 1000;" xml:space="preserve">
<style type="text/css">
	.st0{fill:#333333;}
	.st1{fill:#FFFFFF;}
	.st2{fill:#F7931A;}
	.st3{fill:#1A1A1A;}
</style>
<g>
	<path class="st0" d="M337.3,356.5V500c0,123.8,127.3,188.8,160.7,203.8c33.4-15,160.8-80.3,160.8-203.8V356.5L498,295.9
		L337.3,356.5z"/>
	<path class="st1" d="M557.5,471.7h-119c-11.2,0-20.4,9.2-20.4,20.4v115.6c0,11.2,9.2,20.4,20.4,20.4h119c11.2,0,20.4-9.2,20.4-20.4
		V492.1C577.9,480.9,568.7,471.7,557.5,471.7z M509.9,558.6v20.2c0,3.7-3.1,6.8-6.8,6.8h-10.2c-3.7,0-6.8-3.1-6.8-6.8v-20.2
		c-7.1-4.1-11.9-11.8-11.9-20.6c0-13.1,10.7-23.8,23.8-23.8s23.8,10.7,23.8,23.8C521.8,546.8,517,554.5,509.9,558.6z"/>
	<path class="st1" d="M508.2,342.5h-20.4c-25.3,0-45.9,20.6-45.9,45.9V436v25.5h30.6V436v-47.6c0-8.4,6.9-15.3,15.3-15.3h20.4
		c8.4,0,15.3,6.9,15.3,15.3V436v25.5h30.6V436v-47.6C554.1,363.1,533.5,342.5,508.2,342.5z"/>
	<path class="st2" d="M498,752.2l-7.9-3c-8.1-3-197.7-76.6-197.7-249.2V325.5L498,247.8l205.7,77.6V500
		c0,172.6-189.7,246.1-197.7,249.2L498,752.2z M337.3,356.5V500c0,123.8,127.3,188.8,160.7,203.8c33.4-15,160.8-80.3,160.8-203.8
		V356.5L498,295.9L337.3,356.5z"/>
	<g>
		<rect x="64.4" y="504.5" class="st3" width="867.2" height="94.5"/>
		<path class="st2" d="M936.5,604h-877V499.6h877V604z M69.3,594.1h857.3v-84.7H69.3V594.1z"/>
	</g>
	<g>
		<path class="st1" d="M143,556.7c1.9,2.5,2.9,5.7,2.9,9.4c0,5.2-2,9.2-6,12c-4,2.8-9.8,4.2-17.4,4.2H92.8v-59.7h28
			c7,0,12.5,1.4,16.3,4.1c3.8,2.8,5.7,6.6,5.7,11.4c0,3-0.7,5.6-2,7.8c-1.4,2.3-3.2,4-5.6,5.3C138.4,552.4,141,554.2,143,556.7z
			 M103.9,531.4v16.5h15.7c3.9,0,6.8-0.7,8.9-2.1c2.1-1.4,3.1-3.4,3.1-6.1c0-2.7-1-4.8-3.1-6.2c-2.1-1.4-5-2.1-8.9-2.1H103.9z
			 M134.7,565.1c0-5.7-4.3-8.6-12.9-8.6h-17.9v17.2h17.9C130.4,573.7,134.7,570.8,134.7,565.1z"/>
		<path class="st1" d="M157.7,522.7h11.1v59.7h-11.1V522.7z"/>
		<path class="st1" d="M197,532.1h-19.8v-9.4h50.7v9.4h-19.8v50.3H197V532.1z"/>
		<path class="st1" d="M246.7,579.3c-4.9-2.6-8.7-6.3-11.4-11s-4.1-9.9-4.1-15.8c0-5.9,1.4-11.1,4.2-15.8c2.8-4.7,6.6-8.3,11.5-11
			c4.9-2.6,10.3-4,16.3-4c4.9,0,9.4,0.8,13.4,2.6c4,1.7,7.4,4.2,10.2,7.4l-7.2,6.7c-4.3-4.7-9.6-7-15.9-7c-4.1,0-7.8,0.9-11,2.7
			c-3.2,1.8-5.8,4.3-7.6,7.5c-1.8,3.2-2.7,6.8-2.7,10.8c0,4,0.9,7.6,2.7,10.8c1.8,3.2,4.3,5.7,7.6,7.5c3.2,1.8,6.9,2.7,11,2.7
			c6.3,0,11.6-2.4,15.9-7.1l7.2,6.8c-2.8,3.2-6.2,5.7-10.3,7.4c-4.1,1.7-8.5,2.6-13.4,2.6C257,583.2,251.5,581.9,246.7,579.3z"/>
		<path class="st1" d="M307.5,579.3c-4.9-2.6-8.7-6.3-11.5-11c-2.8-4.7-4.2-9.9-4.2-15.7c0-5.8,1.4-11,4.2-15.7
			c2.8-4.7,6.6-8.4,11.5-11c4.9-2.6,10.4-4,16.5-4c6.1,0,11.6,1.3,16.5,4c4.9,2.6,8.7,6.3,11.5,11c2.8,4.7,4.2,9.9,4.2,15.8
			c0,5.9-1.4,11.1-4.2,15.8s-6.6,8.3-11.5,11c-4.9,2.6-10.4,4-16.5,4C317.9,583.2,312.4,581.9,307.5,579.3z M334.7,570.8
			c3.2-1.8,5.7-4.3,7.5-7.5c1.8-3.2,2.7-6.8,2.7-10.8c0-4-0.9-7.6-2.7-10.8s-4.3-5.7-7.5-7.5c-3.2-1.8-6.8-2.7-10.7-2.7
			s-7.6,0.9-10.7,2.7c-3.2,1.8-5.7,4.3-7.5,7.5s-2.7,6.8-2.7,10.8c0,4,0.9,7.6,2.7,10.8c1.8,3.2,4.3,5.7,7.5,7.5
			c3.2,1.8,6.8,2.7,10.7,2.7S331.5,572.6,334.7,570.8z"/>
		<path class="st1" d="M367.9,522.7H379v59.7h-11.1V522.7z"/>
		<path class="st1" d="M448.1,522.7v59.7H439L406.1,542v40.4h-11v-59.7h9.1l32.9,40.4v-40.4H448.1z"/>
		<path class="st1" d="M492.8,581.3c-4.3-1.3-7.7-3-10.2-5.2l3.8-8.6c2.4,1.9,5.4,3.5,9,4.7c3.6,1.2,7.1,1.8,10.7,1.8
			c4.4,0,7.7-0.7,9.9-2.1c2.2-1.4,3.3-3.3,3.3-5.6c0-1.7-0.6-3.1-1.8-4.2s-2.8-2-4.6-2.6c-1.9-0.6-4.4-1.3-7.7-2.1
			c-4.5-1.1-8.2-2.2-11-3.2c-2.8-1.1-5.2-2.8-7.3-5.1c-2-2.3-3-5.4-3-9.3c0-3.3,0.9-6.3,2.7-9s4.5-4.9,8.1-6.4
			c3.6-1.6,8-2.4,13.3-2.4c3.6,0,7.2,0.5,10.7,1.4c3.5,0.9,6.6,2.2,9.1,3.9l-3.5,8.6c-2.6-1.5-5.3-2.7-8.2-3.5
			c-2.8-0.8-5.6-1.2-8.3-1.2c-4.4,0-7.6,0.7-9.8,2.2c-2.1,1.5-3.2,3.4-3.2,5.9c0,1.7,0.6,3.1,1.8,4.2c1.2,1.1,2.8,1.9,4.6,2.6
			c1.9,0.6,4.4,1.3,7.7,2.1c4.4,1,8.1,2.1,10.9,3.2c2.8,1.1,5.3,2.8,7.3,5.1c2,2.3,3,5.3,3,9.2c0,3.3-0.9,6.3-2.7,8.9
			c-1.8,2.7-4.5,4.8-8.1,6.4c-3.6,1.6-8.1,2.4-13.3,2.4C501.6,583.2,497.1,582.6,492.8,581.3z"/>
		<path class="st1" d="M586.1,573.1v9.3h-44.8v-59.7h43.6v9.3h-32.5v15.5h28.8v9.1h-28.8v16.5H586.1z"/>
		<path class="st1" d="M609.5,579.3c-4.9-2.6-8.7-6.3-11.4-11c-2.8-4.7-4.1-9.9-4.1-15.8c0-5.9,1.4-11.1,4.2-15.8
			c2.8-4.7,6.6-8.3,11.5-11c4.9-2.6,10.3-4,16.3-4c4.9,0,9.4,0.8,13.4,2.6c4,1.7,7.4,4.2,10.2,7.4l-7.2,6.7c-4.3-4.7-9.6-7-15.9-7
			c-4.1,0-7.8,0.9-11,2.7c-3.2,1.8-5.8,4.3-7.6,7.5c-1.8,3.2-2.7,6.8-2.7,10.8c0,4,0.9,7.6,2.7,10.8c1.8,3.2,4.3,5.7,7.6,7.5
			c3.2,1.8,6.9,2.7,11,2.7c6.3,0,11.6-2.4,15.9-7.1l7.2,6.8c-2.8,3.2-6.2,5.7-10.3,7.4c-4.1,1.7-8.5,2.6-13.4,2.6
			C619.8,583.2,614.4,581.9,609.5,579.3z"/>
		<path class="st1" d="M666.2,576.3c-4.6-4.6-6.9-11.3-6.9-19.9v-33.7h11.1v33.3c0,11.7,5.1,17.6,15.2,17.6
			c10.1,0,15.1-5.9,15.1-17.6v-33.3h10.9v33.7c0,8.6-2.3,15.3-6.9,19.9c-4.6,4.6-11,7-19.2,7C677.2,583.2,670.8,580.9,666.2,576.3z"
			/>
		<path class="st1" d="M766.1,582.4l-12.2-17.5c-0.5,0-1.3,0.1-2.3,0.1h-13.5v17.4H727v-59.7h24.6c5.2,0,9.7,0.9,13.5,2.6
			c3.8,1.7,6.8,4.2,8.8,7.3c2,3.2,3.1,7,3.1,11.3c0,4.5-1.1,8.4-3.3,11.6s-5.3,5.7-9.4,7.2l13.7,19.6H766.1z M762.1,535.1
			c-2.5-2-6.2-3.1-11-3.1h-13v23.8h13c4.8,0,8.5-1,11-3.1c2.5-2.1,3.8-5,3.8-8.8S764.6,537.2,762.1,535.1z"/>
		<path class="st1" d="M789.4,522.7h11.1v59.7h-11.1V522.7z"/>
		<path class="st1" d="M828.7,532.1h-19.8v-9.4h50.6v9.4h-19.8v50.3h-11.1V532.1z"/>
		<path class="st1" d="M892.8,561.3v21.1h-11.1v-20.9l-23.4-38.8h11.8l17.5,29.1l17.6-29.1h10.9L892.8,561.3z"/>
	</g>
</g>
</svg>
