<?xml version="1.0" encoding="utf-8"?>
<!-- Generator: Adobe Illustrator 21.1.0, SVG Export Plug-In . SVG Version: 6.00 Build 0)  -->
<svg version="1.1" id="Layer_2" xmlns="http://www.w3.org/2000/svg" xmlns:xlink="http://www.w3.org/1999/xlink" x="0px" y="0px"
	 viewBox="0 0 1000 1000" style="enable-background:new 0 0 1000 1000;" xml:space="preserve">
<style type="text/css">
	.st0{fill:#333333;}
	.st1{fill:#FFFFFF;}
	.st2{fill:#53F1BD;}
	.st3{fill:#1A1A1A;}
</style>
<g>
	<path class="st0" d="M337.3,356.5V500c0,123.8,127.3,188.8,160.7,203.8c33.4-15,160.8-80.3,160.8-203.8V356.5L498,295.9
		L337.3,356.5z"/>
	<path class="st1" d="M557.5,471.7h-119c-11.2,0-20.4,9.2-20.4,20.4v115.6c0,11.2,9.2,20.4,20.4,20.4h119c11.2,0,20.4-9.2,20.4-20.4
		V492.1C577.9,480.9,568.7,471.7,557.5,471.7z M509.9,558.6v20.2c0,3.7-3.1,6.8-6.8,6.8h-10.2c-3.7,0-6.8-3.1-6.8-6.8v-20.2
		c-7.1-4.1-11.9-11.8-11.9-20.6c0-13.1,10.7-23.8,23.8-23.8s23.8,10.7,23.8,23.8C521.8,546.8,517,554.5,509.9,558.6z"/>
	<path class="st1" d="M508.2,342.5h-20.4c-25.3,0-45.9,20.6-45.9,45.9V436v25.5h30.6V436v-47.6c0-8.4,6.9-15.3,15.3-15.3h20.4
		c8.4,0,15.3,6.9,15.3,15.3V436v25.5h30.6V436v-47.6C554.1,363.1,533.5,342.5,508.2,342.5z"/>
	<path class="st2" d="M498,752.2l-7.9-3c-8.1-3-197.7-76.6-197.7-249.2V325.5L498,247.8l205.7,77.6V500
		c0,172.6-189.7,246.1-197.7,249.2L498,752.2z M337.3,356.5V500c0,123.8,127.3,188.8,160.7,203.8c33.4-15,160.8-80.3,160.8-203.8
		V356.5L498,295.9L337.3,356.5z"/>
	<g>
		<rect x="29.9" y="504.5" class="st3" width="936.1" height="94.5"/>
		<path class="st2" d="M971,604H25V499.6h946V604z M34.9,594.1h926.3v-84.7H34.9V594.1z"/>
	</g>
	<g>
		<path class="st1" d="M83.8,557.4l-9.5,9.7v15.3H63.3v-59.7h11.1v30.6l29.5-30.6h12.5l-25.1,26.7l26.6,33h-13L83.8,557.4z"/>
		<path class="st1" d="M134.7,579.3c-4.9-2.6-8.7-6.3-11.5-11c-2.8-4.7-4.2-9.9-4.2-15.7c0-5.8,1.4-11,4.2-15.7
			c2.8-4.7,6.6-8.4,11.5-11c4.9-2.6,10.4-4,16.5-4c6.1,0,11.6,1.3,16.5,4c4.9,2.6,8.7,6.3,11.5,11c2.8,4.7,4.2,9.9,4.2,15.8
			c0,5.9-1.4,11.1-4.2,15.8s-6.6,8.3-11.5,11c-4.9,2.6-10.4,4-16.5,4C145.1,583.2,139.6,581.9,134.7,579.3z M161.9,570.8
			c3.2-1.8,5.7-4.3,7.5-7.5c1.8-3.2,2.7-6.8,2.7-10.8c0-4-0.9-7.6-2.7-10.8s-4.3-5.7-7.5-7.5c-3.2-1.8-6.8-2.7-10.7-2.7
			c-4,0-7.6,0.9-10.7,2.7c-3.2,1.8-5.7,4.3-7.5,7.5s-2.7,6.8-2.7,10.8c0,4,0.9,7.6,2.7,10.8c1.8,3.2,4.3,5.7,7.5,7.5
			c3.2,1.8,6.8,2.7,10.7,2.7C155.1,573.5,158.7,572.6,161.9,570.8z"/>
		<path class="st1" d="M249.9,582.4l-0.1-39.6l-19.6,32.7h-4.9l-19.6-32.2v39.1h-10.6v-59.7h9.1l23.7,39.6l23.3-39.6h9.1l0.1,59.7
			H249.9z"/>
		<path class="st1" d="M287.9,579.3c-4.9-2.6-8.7-6.3-11.5-11c-2.8-4.7-4.2-9.9-4.2-15.7c0-5.8,1.4-11,4.2-15.7
			c2.8-4.7,6.6-8.4,11.5-11c4.9-2.6,10.4-4,16.5-4c6.1,0,11.6,1.3,16.5,4c4.9,2.6,8.7,6.3,11.5,11c2.8,4.7,4.2,9.9,4.2,15.8
			c0,5.9-1.4,11.1-4.2,15.8s-6.6,8.3-11.5,11c-4.9,2.6-10.4,4-16.5,4C298.3,583.2,292.8,581.9,287.9,579.3z M315.1,570.8
			c3.2-1.8,5.7-4.3,7.5-7.5c1.8-3.2,2.7-6.8,2.7-10.8c0-4-0.9-7.6-2.7-10.8s-4.3-5.7-7.5-7.5c-3.2-1.8-6.8-2.7-10.7-2.7
			c-4,0-7.6,0.9-10.7,2.7c-3.2,1.8-5.7,4.3-7.5,7.5s-2.7,6.8-2.7,10.8c0,4,0.9,7.6,2.7,10.8c1.8,3.2,4.3,5.7,7.5,7.5
			c3.2,1.8,6.8,2.7,10.7,2.7C308.4,573.5,311.9,572.6,315.1,570.8z"/>
		<path class="st1" d="M348.3,522.7h26.1c6.4,0,12,1.2,17,3.7c4.9,2.5,8.8,6,11.5,10.5c2.7,4.5,4.1,9.7,4.1,15.6
			c0,5.9-1.4,11.1-4.1,15.6c-2.7,4.5-6.6,8-11.5,10.5c-4.9,2.5-10.6,3.7-17,3.7h-26.1V522.7z M373.9,573c4.4,0,8.2-0.8,11.6-2.5
			c3.3-1.7,5.9-4.1,7.7-7.2c1.8-3.1,2.7-6.7,2.7-10.8c0-4.1-0.9-7.7-2.7-10.8c-1.8-3.1-4.3-5.5-7.7-7.2c-3.3-1.7-7.2-2.5-11.6-2.5
			h-14.5V573H373.9z"/>
		<path class="st1" d="M430.2,579.3c-4.9-2.6-8.7-6.3-11.5-11c-2.8-4.7-4.2-9.9-4.2-15.7c0-5.8,1.4-11,4.2-15.7
			c2.8-4.7,6.6-8.4,11.5-11c4.9-2.6,10.4-4,16.5-4c6.1,0,11.6,1.3,16.5,4c4.9,2.6,8.7,6.3,11.5,11c2.8,4.7,4.2,9.9,4.2,15.8
			c0,5.9-1.4,11.1-4.2,15.8s-6.6,8.3-11.5,11c-4.9,2.6-10.4,4-16.5,4C440.5,583.2,435,581.9,430.2,579.3z M457.4,570.8
			c3.2-1.8,5.7-4.3,7.5-7.5c1.8-3.2,2.7-6.8,2.7-10.8c0-4-0.9-7.6-2.7-10.8s-4.3-5.7-7.5-7.5c-3.2-1.8-6.8-2.7-10.7-2.7
			c-4,0-7.6,0.9-10.7,2.7c-3.2,1.8-5.7,4.3-7.5,7.5s-2.7,6.8-2.7,10.8c0,4,0.9,7.6,2.7,10.8c1.8,3.2,4.3,5.7,7.5,7.5
			c3.2,1.8,6.8,2.7,10.7,2.7C450.6,573.5,454.2,572.6,457.4,570.8z"/>
		<path class="st1" d="M519.2,581.3c-4.3-1.3-7.7-3-10.2-5.2l3.8-8.6c2.4,1.9,5.4,3.5,9,4.7c3.6,1.2,7.1,1.8,10.7,1.8
			c4.4,0,7.7-0.7,9.9-2.1c2.2-1.4,3.3-3.3,3.3-5.6c0-1.7-0.6-3.1-1.8-4.2c-1.2-1.1-2.8-2-4.6-2.6c-1.9-0.6-4.4-1.3-7.7-2.1
			c-4.5-1.1-8.2-2.2-11-3.2c-2.8-1.1-5.2-2.8-7.3-5.1c-2-2.3-3-5.4-3-9.3c0-3.3,0.9-6.3,2.7-9c1.8-2.7,4.5-4.9,8.1-6.4
			c3.6-1.6,8-2.4,13.3-2.4c3.6,0,7.2,0.5,10.7,1.4c3.5,0.9,6.6,2.2,9.1,3.9l-3.5,8.6c-2.6-1.5-5.4-2.7-8.2-3.5
			c-2.8-0.8-5.6-1.2-8.3-1.2c-4.4,0-7.6,0.7-9.8,2.2c-2.1,1.5-3.2,3.4-3.2,5.9c0,1.7,0.6,3.1,1.8,4.2c1.2,1.1,2.8,1.9,4.6,2.6
			c1.9,0.6,4.4,1.3,7.7,2.1c4.4,1,8.1,2.1,10.9,3.2c2.8,1.1,5.3,2.8,7.3,5.1c2,2.3,3,5.3,3,9.2c0,3.3-0.9,6.3-2.7,8.9
			c-1.8,2.7-4.5,4.8-8.1,6.4c-3.6,1.6-8.1,2.4-13.3,2.4C528,583.2,523.5,582.6,519.2,581.3z"/>
		<path class="st1" d="M612.5,573.1v9.3h-44.8v-59.7h43.6v9.3h-32.5v15.5h28.8v9.1h-28.8v16.5H612.5z"/>
		<path class="st1" d="M635.9,579.3c-4.9-2.6-8.7-6.3-11.4-11c-2.8-4.7-4.1-9.9-4.1-15.8c0-5.9,1.4-11.1,4.2-15.8
			c2.8-4.7,6.6-8.3,11.5-11c4.9-2.6,10.3-4,16.3-4c4.9,0,9.4,0.8,13.4,2.6c4,1.7,7.4,4.2,10.2,7.4l-7.2,6.7c-4.3-4.7-9.6-7-15.9-7
			c-4.1,0-7.8,0.9-11,2.7s-5.8,4.3-7.6,7.5c-1.8,3.2-2.7,6.8-2.7,10.8c0,4,0.9,7.6,2.7,10.8c1.8,3.2,4.3,5.7,7.6,7.5s6.9,2.7,11,2.7
			c6.3,0,11.6-2.4,15.9-7.1l7.2,6.8c-2.8,3.2-6.2,5.7-10.3,7.4c-4.1,1.7-8.5,2.6-13.4,2.6C646.2,583.2,640.7,581.9,635.9,579.3z"/>
		<path class="st1" d="M692.5,576.3c-4.6-4.6-6.9-11.3-6.9-19.9v-33.7h11.1v33.3c0,11.7,5.1,17.6,15.2,17.6
			c10.1,0,15.1-5.9,15.1-17.6v-33.3h10.9v33.7c0,8.6-2.3,15.3-6.9,19.9c-4.6,4.6-11,7-19.2,7C703.6,583.2,697.1,580.9,692.5,576.3z"
			/>
		<path class="st1" d="M792.5,582.4l-12.2-17.5c-0.5,0-1.3,0.1-2.3,0.1h-13.5v17.4h-11.1v-59.7H778c5.2,0,9.7,0.9,13.5,2.6
			c3.8,1.7,6.8,4.2,8.8,7.3c2,3.2,3.1,7,3.1,11.3c0,4.5-1.1,8.4-3.3,11.6c-2.2,3.2-5.3,5.7-9.4,7.2l13.7,19.6H792.5z M788.5,535.1
			c-2.5-2-6.2-3.1-11-3.1h-13v23.8h13c4.8,0,8.5-1,11-3.1s3.8-5,3.8-8.8S791,537.2,788.5,535.1z"/>
		<path class="st1" d="M815.7,522.7h11.1v59.7h-11.1V522.7z"/>
		<path class="st1" d="M855,532.1h-19.8v-9.4h50.6v9.4h-19.8v50.3H855V532.1z"/>
		<path class="st1" d="M919.2,561.3v21.1h-11.1v-20.9l-23.4-38.8h11.9l17.5,29.1l17.6-29.1h10.9L919.2,561.3z"/>
	</g>
</g>
</svg>
