<?xml version="1.0" encoding="utf-8"?>
<!-- Generator: Adobe Illustrator 21.1.0, SVG Export Plug-In . SVG Version: 6.00 Build 0)  -->
<svg version="1.1" id="Layer_3" xmlns="http://www.w3.org/2000/svg" xmlns:xlink="http://www.w3.org/1999/xlink" x="0px" y="0px"
	 viewBox="0 0 1000 1000" style="enable-background:new 0 0 1000 1000;" xml:space="preserve">
<style type="text/css">
	.st0{fill:#FFFFFF;}
	.st1{fill:#555A66;}
</style>
<g>
	<path class="st0" d="M278.3,571h-17.6v-6.4h42.4v6.4h-17.6v44.9h-7.2V571z"/>
	<path class="st0" d="M342.5,581c2.9,2.9,4.4,7,4.4,12.6v22.3h-7v-21.5c0-3.8-0.9-6.6-2.7-8.5c-1.8-1.9-4.4-2.9-7.8-2.9
		c-3.8,0-6.8,1.1-9,3.3c-2.2,2.2-3.3,5.4-3.3,9.5v20h-7v-54.3h7v21c1.5-1.9,3.4-3.3,5.7-4.3c2.4-1,5-1.5,7.9-1.5
		C335.7,576.7,339.6,578.2,342.5,581z"/>
	<path class="st0" d="M395,598.8h-31.5c0.4,3.4,1.9,6.2,4.5,8.2c2.6,2.1,5.7,3.1,9.5,3.1c4.6,0,8.4-1.6,11.2-4.7l3.9,4.5
		c-1.8,2-3.9,3.6-6.6,4.7c-2.6,1.1-5.5,1.6-8.7,1.6c-4.1,0-7.7-0.8-10.9-2.5c-3.2-1.7-5.6-4-7.4-7.1c-1.7-3-2.6-6.4-2.6-10.2
		c0-3.8,0.8-7.1,2.5-10.2c1.7-3,4-5.4,7-7.1c3-1.7,6.3-2.5,10-2.5s7,0.8,9.9,2.5c2.9,1.7,5.2,4,6.8,7.1c1.6,3,2.5,6.5,2.5,10.4
		C395.1,597.3,395.1,598,395,598.8z M367.5,585.7c-2.3,2-3.6,4.7-4,8.1h24.9c-0.4-3.3-1.7-5.9-4-8c-2.3-2.1-5.1-3.1-8.5-3.1
		C372.6,582.7,369.8,583.7,367.5,585.7z"/>
	<path class="st0" d="M425.6,564.7h21.6c5.4,0,10.2,1.1,14.4,3.2c4.2,2.1,7.5,5.2,9.8,9c2.3,3.9,3.5,8.3,3.5,13.4s-1.2,9.5-3.5,13.4
		c-2.3,3.9-5.6,6.9-9.8,9c-4.2,2.1-9,3.2-14.4,3.2h-21.6V564.7z M446.7,609.5c4.1,0,7.8-0.8,10.9-2.4c3.1-1.6,5.6-3.9,7.3-6.8
		c1.7-2.9,2.6-6.3,2.6-10.1c0-3.8-0.9-7.2-2.6-10.1c-1.7-2.9-4.1-5.2-7.3-6.8c-3.1-1.6-6.8-2.4-10.9-2.4h-13.8v38.5H446.7z"/>
	<path class="st0" d="M485.1,568.3c-0.9-0.9-1.4-2-1.4-3.2s0.5-2.4,1.4-3.3c0.9-0.9,2-1.4,3.4-1.4c1.4,0,2.5,0.4,3.4,1.3
		c0.9,0.9,1.4,1.9,1.4,3.2c0,1.3-0.4,2.4-1.4,3.3c-0.9,0.9-2,1.4-3.4,1.4C487.1,569.6,486,569.2,485.1,568.3z M485,577.1h7v38.8h-7
		V577.1z"/>
	<path class="st0" d="M507.4,615.1c-2.9-0.8-5.2-1.9-6.9-3.3l2.9-5.6c1.7,1.2,3.8,2.2,6.2,2.9c2.4,0.7,4.9,1.1,7.4,1.1
		c6.1,0,9.2-1.8,9.2-5.3c0-1.2-0.4-2.1-1.2-2.8s-1.9-1.2-3.1-1.5c-1.2-0.3-3-0.7-5.3-1.1c-3.1-0.5-5.7-1-7.6-1.7s-3.7-1.7-5.1-3.2
		c-1.4-1.5-2.1-3.6-2.1-6.4c0-3.5,1.5-6.3,4.4-8.5s6.9-3.2,11.8-3.2c2.6,0,5.2,0.3,7.8,0.9s4.7,1.5,6.4,2.6l-3,5.6
		c-3.2-2.1-6.9-3.1-11.2-3.1c-3,0-5.2,0.5-6.8,1.5c-1.6,1-2.3,2.3-2.3,3.9c0,1.3,0.4,2.3,1.3,3c0.9,0.7,2,1.3,3.3,1.6
		c1.3,0.3,3.1,0.7,5.4,1.2c3.1,0.5,5.6,1.1,7.6,1.7c1.9,0.6,3.6,1.6,4.9,3.1c1.4,1.5,2,3.5,2,6.1c0,3.5-1.5,6.3-4.5,8.4
		c-3,2.1-7.1,3.1-12.3,3.1C513.4,616.3,510.3,615.9,507.4,615.1z"/>
	<path class="st0" d="M548.4,613.8c-3.1-1.7-5.5-4.1-7.3-7.1c-1.8-3-2.6-6.4-2.6-10.2c0-3.8,0.9-7.2,2.6-10.2c1.8-3,4.2-5.3,7.3-7
		c3.1-1.7,6.6-2.5,10.6-2.5c3.5,0,6.6,0.7,9.4,2.1s4.9,3.5,6.4,6.1l-5.3,3.4c-1.2-1.9-2.7-3.2-4.5-4.2c-1.8-0.9-3.8-1.4-6-1.4
		c-2.5,0-4.8,0.6-6.8,1.7c-2,1.1-3.6,2.7-4.8,4.8c-1.1,2.1-1.7,4.5-1.7,7.1c0,2.7,0.6,5.1,1.7,7.2c1.1,2.1,2.7,3.7,4.8,4.8
		c2,1.1,4.3,1.7,6.8,1.7c2.2,0,4.2-0.5,6-1.4c1.8-0.9,3.3-2.3,4.5-4.2l5.3,3.4c-1.5,2.7-3.6,4.7-6.4,6.2s-5.9,2.2-9.4,2.2
		C555,616.3,551.5,615.5,548.4,613.8z"/>
	<path class="st0" d="M589.5,613.8c-3.1-1.7-5.5-4.1-7.2-7.1c-1.7-3-2.6-6.4-2.6-10.2c0-3.8,0.9-7.2,2.6-10.2c1.7-3,4.1-5.3,7.2-7
		c3.1-1.7,6.5-2.5,10.4-2.5c3.9,0,7.3,0.8,10.4,2.5c3,1.7,5.4,4,7.2,7c1.7,3,2.6,6.4,2.6,10.2c0,3.8-0.9,7.2-2.6,10.2
		c-1.7,3-4.1,5.4-7.2,7.1c-3.1,1.7-6.5,2.6-10.4,2.6C596,616.3,592.6,615.5,589.5,613.8z M606.6,608.5c2-1.1,3.5-2.8,4.6-4.8
		c1.1-2.1,1.7-4.5,1.7-7.1c0-2.7-0.6-5.1-1.7-7.1c-1.1-2.1-2.7-3.7-4.6-4.8c-2-1.1-4.2-1.7-6.7-1.7c-2.5,0-4.7,0.6-6.7,1.7
		c-2,1.1-3.5,2.7-4.7,4.8c-1.1,2.1-1.7,4.5-1.7,7.1c0,2.7,0.6,5.1,1.7,7.1c1.1,2.1,2.7,3.7,4.7,4.8c2,1.1,4.2,1.7,6.7,1.7
		C602.4,610.2,604.6,609.6,606.6,608.5z"/>
	<path class="st0" d="M663,577.1l-17,38.8h-7.2l-17-38.8h7.3l13.3,31.1l13.6-31.1H663z"/>
	<path class="st0" d="M703.4,598.8h-31.5c0.4,3.4,1.9,6.2,4.5,8.2c2.6,2.1,5.7,3.1,9.5,3.1c4.6,0,8.4-1.6,11.2-4.7l3.9,4.5
		c-1.8,2-3.9,3.6-6.6,4.7c-2.6,1.1-5.5,1.6-8.7,1.6c-4.1,0-7.7-0.8-10.9-2.5c-3.2-1.7-5.6-4-7.4-7.1c-1.7-3-2.6-6.4-2.6-10.2
		c0-3.8,0.8-7.1,2.5-10.2c1.7-3,4-5.4,7-7.1c3-1.7,6.3-2.5,10-2.5c3.7,0,7,0.8,9.9,2.5c2.9,1.7,5.2,4,6.8,7.1
		c1.6,3,2.5,6.5,2.5,10.4C703.5,597.3,703.5,598,703.4,598.8z M675.9,585.7c-2.3,2-3.6,4.7-4,8.1h24.9c-0.4-3.3-1.7-5.9-4-8
		c-2.3-2.1-5.1-3.1-8.5-3.1C681,582.7,678.1,583.7,675.9,585.7z"/>
	<path class="st0" d="M725.4,578.5c2.4-1.2,5.3-1.8,8.7-1.8v6.8c-0.4,0-0.9-0.1-1.6-0.1c-3.8,0-6.8,1.1-9,3.4s-3.3,5.5-3.3,9.7v19.3
		h-7v-38.8h6.7v6.5C721.2,581.4,723,579.7,725.4,578.5z"/>
	<path class="st0" d="M778.7,577.1l-18.8,42.7c-1.7,4-3.6,6.7-5.8,8.3c-2.2,1.6-4.9,2.4-8,2.4c-1.9,0-3.7-0.3-5.5-0.9
		c-1.8-0.6-3.3-1.5-4.4-2.7l3-5.3c2,1.9,4.3,2.9,7,2.9c1.7,0,3.1-0.4,4.3-1.4c1.1-0.9,2.2-2.5,3.1-4.6l1.2-2.7l-17.1-38.7h7.3
		l13.5,31l13.4-31H778.7z"/>
	<path class="st0" d="M816.1,571h-17.6v-6.4h42.4v6.4h-17.6v44.9h-7.2V571z"/>
	<path class="st0" d="M850.1,613.8c-3.1-1.7-5.5-4.1-7.2-7.1c-1.7-3-2.6-6.4-2.6-10.2c0-3.8,0.9-7.2,2.6-10.2c1.7-3,4.1-5.3,7.2-7
		c3.1-1.7,6.5-2.5,10.4-2.5c3.9,0,7.3,0.8,10.4,2.5c3,1.7,5.4,4,7.2,7c1.7,3,2.6,6.4,2.6,10.2c0,3.8-0.9,7.2-2.6,10.2
		c-1.7,3-4.1,5.4-7.2,7.1c-3.1,1.7-6.5,2.6-10.4,2.6C856.6,616.3,853.1,615.5,850.1,613.8z M867.2,608.5c2-1.1,3.5-2.8,4.6-4.8
		c1.1-2.1,1.7-4.5,1.7-7.1c0-2.7-0.6-5.1-1.7-7.1c-1.1-2.1-2.7-3.7-4.6-4.8c-2-1.1-4.2-1.7-6.7-1.7c-2.5,0-4.7,0.6-6.7,1.7
		c-2,1.1-3.5,2.7-4.7,4.8c-1.1,2.1-1.7,4.5-1.7,7.1c0,2.7,0.6,5.1,1.7,7.1c1.1,2.1,2.7,3.7,4.7,4.8c2,1.1,4.2,1.7,6.7,1.7
		C863,610.2,865.2,609.6,867.2,608.5z"/>
	<path class="st0" d="M926.5,577.1v38.8h-6.7V610c-1.4,2-3.3,3.5-5.6,4.6c-2.3,1.1-4.8,1.6-7.6,1.6c-5.2,0-9.2-1.4-12.2-4.3
		c-3-2.9-4.5-7.1-4.5-12.6v-22.3h7v21.5c0,3.8,0.9,6.6,2.7,8.5c1.8,1.9,4.4,2.9,7.8,2.9c3.7,0,6.6-1.1,8.8-3.4
		c2.1-2.2,3.2-5.4,3.2-9.5v-20.1H926.5z"/>
	<path class="st0" d="M952,578.5c2.4-1.2,5.3-1.8,8.7-1.8v6.8c-0.4,0-0.9-0.1-1.6-0.1c-3.8,0-6.8,1.1-9,3.4s-3.3,5.5-3.3,9.7v19.3
		h-7v-38.8h6.7v6.5C947.8,581.4,949.6,579.7,952,578.5z"/>
</g>
<polygon class="st1" points="941.2,394.7 942.5,394.7 942.5,383.7 946.5,383.7 946.5,382.6 937.2,382.6 937.2,383.7 941.2,383.7 "/>
<polygon class="st1" points="949.6,384.2 949.6,384.2 954,394.7 954.7,394.7 959.1,384.2 959.1,384.2 959.1,394.7 960.3,394.7 
	960.3,382.6 958.4,382.6 954.4,392.6 954.4,392.6 950.2,382.6 948.4,382.6 948.4,394.7 949.6,394.7 "/>
<g>
	<path class="st1" d="M413.1,403.3c-33,0-59.9,26.9-59.9,59.9s26.9,59.9,59.9,59.9c33,0,59.9-26.9,59.9-59.9
		S446.2,403.3,413.1,403.3z M445.6,463.1c0,17.9-14.6,32.5-32.5,32.5s-32.5-14.6-32.5-32.5s14.6-32.5,32.5-32.5
		S445.6,445.3,445.6,463.1z"/>
	<path class="st1" d="M906.1,402.3c-33,0-59.9,26.9-59.9,59.9c0,33,26.9,59.9,59.9,59.9c33,0,59.9-26.9,59.9-59.9
		C966,429.2,939.1,402.3,906.1,402.3z M938.5,462.1c0,17.9-14.6,32.5-32.5,32.5c-17.9,0-32.5-14.6-32.5-32.5
		c0-17.9,14.6-32.5,32.5-32.5C924,429.7,938.5,444.2,938.5,462.1z"/>
	<path class="st1" d="M666.5,403.3c-33,0-59.9,26.9-59.9,59.9s26.9,59.9,59.9,59.9c33,0,59.9-26.9,59.9-59.9
		S699.6,403.3,666.5,403.3z M699,463.1c0,17.9-14.6,32.5-32.5,32.5s-32.5-14.6-32.5-32.5s14.6-32.5,32.5-32.5S699,445.3,699,463.1z"
		/>
	<polygon class="st1" points="372.5,403.3 330.4,403.3 291.6,442.1 291.6,403.3 261.9,403.3 261.9,521.1 291.6,521.1 291.6,483.5 
		329.2,521.1 371.3,521.1 313,462.8 	"/>
	<path class="st1" d="M786.3,403.5v-0.3h-52.6v119.9h52.6v-0.3c30.7-2.8,54.5-28.7,54.5-59.7C840.7,432.3,816.9,406.3,786.3,403.5z
		 M813.3,463.1c0,17.9-14.6,32.5-32.5,32.5l-1.3,0.1h-16.1v-64.9h18.4C799.4,431.3,813.3,445.5,813.3,463.1z"/>
	<polygon class="st1" points="539.8,433.7 510.6,405.3 481.1,405.3 481.1,523.2 511.6,523.2 511.6,448.4 538.8,474.7 539.7,475.6 
		539.8,475.6 539.9,475.7 568.3,448 568.3,523.2 598.9,523.2 598.9,405.3 569.1,405.3 	"/>
</g>
<g>
	<path class="st1" d="M189.7,394.3L189.7,394.3l-68.1-28.3l-0.1,0.1l-68.1,28.1l-0.1,0.4L25,462.2l28.2,68.2l68.1,28.3l0.1-0.1
		l68.1-28.1l28.3-68.1L189.7,394.3z M164.4,505.5l-43,17.8l-0.1,0l-43.1-17.9l-17.8-43.1l17.8-42.8l0.1-0.3l43-17.8l0.1,0l43,17.9
		l0,0l17.8,43.1L164.4,505.5z"/>
	<polygon class="st1" points="121.5,426.7 121.4,426.7 96.3,437.1 85.8,462.3 96.2,487.5 121.4,498 121.4,498 146.6,487.6 
		157.1,462.4 146.7,437.2 	"/>
</g>
</svg>
